<svg width="1440" height="328" viewBox="0 0 1440 328" fill="none" xmlns="http://www.w3.org/2000/svg">
<mask id="mask0_59_866" style="mask-type:alpha" maskUnits="userSpaceOnUse" x="0" y="0" width="1440" height="328">
<rect width="1440" height="328" fill="black"/>
</mask>
<g mask="url(#mask0_59_866)">
<path d="M1108.61 332.86C1108.7 336.909 1107.66 340.304 1106.07 343.084M1108.61 332.86C1107.79 335.93 1106.91 339.426 1106.07 343.084M1108.61 332.86C1108.42 324.241 1108.28 325.438 1108.61 332.86ZM1140.89 311.003C1140.89 300.643 1140.89 279.319 1140.89 269.951M1140.89 311.003C1140.89 343.843 1126.42 306.643 1119.19 283.937C1120.46 292.959 1113.49 301.497 1075.47 263.477C1037.44 225.456 1103.24 251.951 1140.89 269.951M1140.89 311.003V269.951M1106.07 343.084C1101.74 362.02 1098.4 385.3 1108.61 376.27C1120.78 365.496 1142.93 360.126 1152.48 358.788C1167.66 359.694 1051.78 424.926 1177.65 456C1222.41 362.526 1210.58 139.841 1201.34 138.381C1188.88 136.412 1180.36 143.949 1177.65 147.964C1144.9 156.677 1199.34 78.0539 1177.65 78.5525C1168.64 78.7597 1162.2 106.171 1159.44 113.294C1144.38 68.7748 1133.83 133.667 1131.45 136.568C1116.89 154.275 1106.94 113.559 1097.99 100.049C1093.63 97.8045 1074.7 103.887 1072.32 107.617C1073.35 39.2437 1025.1 78.8769 1004.08 38.667C991.773 36.6814 973.345 37.9677 998.122 58.9983C998.619 66.984 1002.79 82.0749 1015.51 78.5525C992.399 90.8369 998.397 109.532 1009.55 132.117C992.889 128.932 930.944 132.827 926.926 147.964C849.37 78.5525 900.427 152.798 889.64 156.618C885.604 158.047 903.1 173.055 960.526 156.618C990.761 147.964 1029.91 187.966 1048.33 188.588C1067.99 189.251 984.366 187.825 998.395 206.076M1106.07 343.084C1103.03 348.41 1097.96 351.481 1094.84 352.572L1072.32 324.211C1066.29 302.8 1014.5 352.991 1032.07 324.211C1063.68 263.545 955.89 371.233 980.897 311.003C1017.99 275.684 955.154 310.388 948.27 288.858C968.481 273.371 929.13 258.061 944.626 251.692C947.718 251.002 959.3 252.003 980.897 261.534C1007.89 273.448 960.526 230.325 960.526 214.267C960.526 198.209 985.203 245.217 976.591 220.742C969.991 201.986 987.585 202.963 998.395 206.076M998.395 206.076C1006.96 217.218 1002.75 207.33 998.395 206.076ZM1168.05 229.03C1161.53 227.994 1148.51 229.988 1148.51 246.253C1148.51 251.985 1072.96 149.188 1102.3 173.605C1140.89 205.72 1144.36 205.979 1140.89 181.245C1138.1 161.458 1152.09 189.835 1159.44 206.497C1178.59 215.087 1207.14 231.62 1168.05 229.03Z" stroke="white" stroke-width="2"/>
<path d="M1319.39 332.86C1319.3 336.909 1320.34 340.304 1321.93 343.084M1319.39 332.86C1320.21 335.93 1321.09 339.426 1321.93 343.084M1319.39 332.86C1319.58 324.241 1319.72 325.438 1319.39 332.86ZM1287.11 311.003C1287.11 300.643 1287.11 279.319 1287.11 269.951M1287.11 311.003C1287.11 343.843 1301.58 306.643 1308.81 283.937C1307.54 292.959 1314.51 301.497 1352.53 263.477C1390.56 225.456 1324.76 251.951 1287.11 269.951M1287.11 311.003V269.951M1321.93 343.084C1326.26 362.02 1329.6 385.3 1319.39 376.27C1307.22 365.496 1285.07 360.126 1275.52 358.788C1260.34 359.694 1376.22 424.926 1250.35 456C1205.59 362.526 1217.42 139.841 1226.66 138.381C1239.12 136.412 1247.64 143.949 1250.35 147.964C1283.1 156.677 1228.66 78.0539 1250.35 78.5525C1259.36 78.7597 1265.8 106.171 1268.56 113.294C1283.62 68.7748 1294.17 133.667 1296.55 136.568C1311.11 154.275 1321.06 113.559 1330.01 100.049C1334.37 97.8045 1353.3 103.887 1355.68 107.617C1354.65 39.2437 1402.9 78.8769 1423.92 38.667C1436.23 36.6814 1454.66 37.9677 1429.88 58.9983C1429.38 66.984 1425.21 82.0749 1412.49 78.5525C1435.6 90.8369 1429.6 109.532 1418.45 132.117C1435.11 128.932 1497.06 132.827 1501.07 147.964C1578.63 78.5525 1527.57 152.798 1538.36 156.618C1542.4 158.047 1524.9 173.055 1467.47 156.618C1437.24 147.964 1398.09 187.966 1379.67 188.588C1360.01 189.251 1443.63 187.825 1429.61 206.076M1321.93 343.084C1324.97 348.41 1330.04 351.481 1333.16 352.572L1355.68 324.211C1361.71 302.8 1413.5 352.991 1395.93 324.211C1364.32 263.545 1472.11 371.233 1447.1 311.003C1410.01 275.684 1472.85 310.388 1479.73 288.858C1459.52 273.371 1498.87 258.061 1483.37 251.692C1480.28 251.002 1468.7 252.003 1447.1 261.534C1420.11 273.448 1467.47 230.325 1467.47 214.267C1467.47 198.209 1442.8 245.217 1451.41 220.742C1458.01 201.986 1440.41 202.963 1429.61 206.076M1429.61 206.076C1421.04 217.218 1425.25 207.33 1429.61 206.076ZM1259.95 229.03C1266.47 227.994 1279.49 229.988 1279.49 246.253C1279.49 251.985 1355.04 149.188 1325.7 173.605C1287.11 205.72 1283.64 205.979 1287.11 181.245C1289.9 161.458 1275.91 189.835 1268.56 206.497C1249.41 215.087 1220.86 231.62 1259.95 229.03Z" stroke="white" stroke-width="2"/>
</g>
</svg>
