<svg width="672" height="831" viewBox="0 0 672 831" fill="none" xmlns="http://www.w3.org/2000/svg">
<path d="M402.968 4.60014C414.662 0.181589 427.566 0.569379 439.241 1.88925C441.229 2.1141 443.333 2.2881 445.63 2.47306C447.877 2.654 450.319 2.84615 452.75 3.09851C457.566 3.59846 462.949 4.38939 467.977 6.13601C473.139 7.92898 478.099 10.7898 481.75 15.4373C485.365 20.0395 487.227 25.7966 487.467 32.7167C487.713 39.8131 486.153 45.7964 482.741 50.6956C479.311 55.6203 474.428 58.8458 469.255 61.0109C464.192 63.1301 458.689 64.3032 453.693 65.1235C451.17 65.5377 448.653 65.8797 446.309 66.1949C443.919 66.5164 441.738 66.8057 439.667 67.133C434.339 67.9753 429.484 66.5097 428.084 66.2152C427.493 66.091 427.182 66.0517 427.037 66.0385C427.011 66.0518 426.976 66.0682 426.935 66.0912C426.166 66.5196 425.546 67.0247 425.617 69.1223C425.703 71.6476 426.88 75.2382 429.214 80.0066C431.501 84.6794 434.484 89.691 437.609 95.0969C440.647 100.353 443.809 105.964 446.024 111.308C450.416 121.901 455.989 128.12 461.996 135.62C468.139 143.29 474.198 151.748 477.562 165.771C480.608 178.471 478.786 189.362 477.328 198.949C476.563 203.979 475.893 208.673 475.808 213.382C477.038 207.961 478.371 201.765 479.856 195.027C483.462 178.662 487.861 159.783 493.749 143.846C496.692 135.878 500.099 128.389 504.126 122.207C508.067 116.156 513.093 110.586 519.711 107.459C532.268 101.526 542.985 103.132 551.784 104.95C560.695 106.791 566.723 108.436 574.455 106.779C579.735 105.647 584.906 102.513 590.457 97.6385C596.107 92.678 601.007 87.0119 606.76 81.0696C612.092 75.5629 618.358 69.6052 625.782 66.3013C629.679 64.5666 634.086 63.4674 638.945 63.6005C643.804 63.7337 648.531 65.0835 653.099 67.4837C666.753 74.6576 671.421 86.5352 670.971 99.1771C670.529 111.564 665.247 125.583 657.888 139.363C643.105 167.042 618.588 196.213 600.3 214.274C588.834 225.597 577.37 229.093 567.547 232.212C558.209 235.176 550.353 237.783 541.991 246.444C536.117 252.528 532.211 261.13 529.346 271.531C526.483 281.926 524.882 293.182 522.962 304.473C521.098 315.44 518.908 326.622 514.687 335.63C510.418 344.743 503.401 353.008 491.021 355.841C482.909 357.697 475.979 355.631 470.535 352.586C465.428 349.73 460.902 345.59 457.319 342.408C453.34 338.874 450.347 336.351 447.45 334.919C445.073 333.744 443.413 333.597 441.312 334.329C435.118 336.49 431.274 337.693 428.033 339.878C425.27 341.74 422.585 344.636 420.707 350.769C416.609 364.151 422.805 373.319 430.143 389.306C434.158 398.052 437.999 403.997 442.299 408.688C446.574 413.351 451.579 417.078 458.388 421.138C463.029 423.906 466.81 424.4 470.377 424.03C474.412 423.611 478.69 422.041 484.18 419.658C494.07 415.365 508.671 407.604 526.065 411.816L527.475 412.151C534.574 413.805 542.419 415.182 551.465 417.119C560.662 419.088 570.488 421.531 579.058 425.12C587.606 428.702 595.716 433.759 600.441 441.341C605.297 449.132 605.881 458.444 601.946 469.204C598.519 478.578 592.821 485.327 583.475 487.172C575.264 488.793 566.928 485.864 560.73 483.349C553.396 480.373 547.908 477.511 541.308 475.322C535.124 473.271 530.359 472.75 526.353 473.855C513.543 477.386 499.325 486.955 486.383 496.633C480.262 501.209 474.14 506.026 469.4 509.419C466.981 511.151 464.587 512.761 462.384 513.973C460.595 514.957 457.401 516.582 453.764 516.648C453.74 516.648 453.681 516.653 453.591 516.686C453.511 516.715 453.332 516.793 453.086 517.005C452.611 517.416 451.548 518.644 451 521.63C449.863 527.837 451.31 539.835 461.335 560.858C481.082 602.267 514.856 629.772 528.592 638.002C533.275 640.808 536.747 644.217 538.044 648.536C539.317 652.777 538.068 656.552 536.845 659.219C536.227 660.566 535.498 661.87 534.891 662.95C534.242 664.105 533.711 665.044 533.248 665.989C532.332 667.861 532.038 669.089 532.117 670.103C534.494 700.781 544.458 714.579 557.11 742.785C559.588 748.309 563.439 753.202 567.985 757.975C570.26 760.364 572.651 762.664 575.109 765.008C577.524 767.311 580.054 769.703 582.39 772.093C587.013 776.823 591.573 782.226 593.832 788.556C596.201 795.196 595.851 802.293 591.881 809.994C586.942 819.576 579.869 825.929 570.673 828.608C561.723 831.216 552.462 829.832 544.278 827.154C542.456 826.558 541.257 825.581 540.78 825.177C540.158 824.649 539.629 824.091 539.21 823.614C538.364 822.652 537.493 821.478 536.635 820.237C534.897 817.722 532.784 814.302 530.407 810.267C525.634 802.167 519.504 791.083 512.693 778.675C499.013 753.754 482.506 723.349 468.086 699.725C460.855 687.878 454.305 677.999 449.015 671.436C448.997 671.414 448.978 671.393 448.96 671.371C449.073 672.94 449.246 674.71 449.49 676.698C450.959 688.647 454.802 707.08 461.749 733.719C462.361 736.065 462.732 738.323 462.702 740.406C462.672 742.416 462.262 744.879 460.637 747.116C458.798 749.647 455.92 751.174 452.737 751.647C449.926 752.064 447.295 751.61 445.302 751.073C441.329 750.001 437.059 747.795 432.995 745.336C428.778 742.784 424.15 739.565 419.373 736.003C400.418 721.867 376.969 700.668 364.027 689.571C340.808 669.661 349.277 645.544 354.905 628.351C357.963 619.008 360.181 611.888 359.63 606.075C359.377 603.414 358.544 601.302 357.06 599.503C355.56 597.685 353.026 595.742 348.564 593.933C338.399 589.809 328.702 589.964 318.801 592.078C308.254 594.33 299.045 598.332 288.104 601.924C278.074 605.217 266.289 608.208 254.615 604.932C242.608 601.562 233.289 592.386 225.587 576.971C216.724 559.233 218.377 545.209 226.535 533.808C234.181 523.124 247.055 515.593 257.731 509.444C263.323 506.224 268.348 503.382 272.667 500.436C276.982 497.493 280.016 494.818 281.838 492.197C283.535 489.756 284.238 487.297 283.744 484.346C283.219 481.202 281.238 476.964 276.326 471.322C264.045 457.216 237.554 431.073 211.432 412.431C198.262 403.032 185.9 396.064 175.942 393.166C171.013 391.732 167.358 391.5 164.781 391.954C162.514 392.353 160.507 393.367 158.701 395.744C155.874 399.464 154.482 404.332 154.111 410.477C153.737 416.661 154.419 423.361 155.099 430.603C155.755 437.582 156.421 445.162 155.604 452.094C154.78 459.094 152.358 466.329 145.964 472.009C140.939 476.472 135.222 478.418 129.171 478.25C123.841 478.103 118.955 476.282 115.575 475.006C107.369 471.909 104.842 471.169 101.554 473.02C96.3423 475.954 94.0167 482.532 97.3566 496.139C100.541 509.11 108.028 524.835 115.912 541.252C123.595 557.25 131.71 574.007 135.111 587.906C136.813 594.861 137.536 601.831 135.936 607.995C134.246 614.508 129.929 620.103 122.172 623.403C107.919 629.466 92.4407 630.312 78.6183 624.366C64.9596 618.49 54.3614 606.609 48.0013 589.681C41.9617 573.606 46.8451 559.547 51.3272 547.261C55.9494 534.59 60.1835 523.645 57.475 510.797C54.3676 496.057 39.488 486.841 24.1276 477.542C20.4929 475.341 16.7952 473.092 13.5739 470.837C10.3837 468.603 7.2297 466.07 4.89933 463.178C2.49978 460.199 0.732439 456.528 1.03343 452.259C1.33112 448.036 3.58169 444.244 6.88835 440.866C17.1176 430.415 25.0997 422.26 33.082 414.106C41.0645 405.951 49.0472 397.795 59.2768 387.345C62.0195 384.543 65.0713 381.984 68.5164 380.634C70.383 379.902 72.7529 379.373 75.399 379.679C78.136 379.996 80.321 381.108 81.9061 382.438C84.671 384.759 85.8546 387.941 86.4883 390.092C87.2058 392.529 87.655 395.309 87.9994 397.998C88.7463 403.828 89.0455 409.154 89.9874 414.269C90.3541 416.26 90.7731 417.889 91.2383 419.16C91.5766 418.228 91.9112 417.124 92.2311 415.837C94.3808 407.189 95.1224 393.84 95.7683 379.402C96.3944 365.406 96.9305 350.441 98.9222 339.768C99.8798 334.636 101.358 329.305 104.215 325.564C105.728 323.583 108.183 321.318 111.971 320.356C115.686 319.412 119.172 320.096 121.949 321.299L122.494 321.546L184.958 351.075C190.304 353.602 192.47 353.328 192.858 353.238C192.97 353.212 193.89 353.028 195.212 350.644C196.554 348.222 197.608 344.772 198.669 340.275C199.644 336.144 200.689 330.799 201.968 326.14C208.245 303.278 192.034 288.595 174.441 270.448C168.277 264.09 162.948 262.24 158.244 261.919C152.971 261.559 147.094 262.998 139.536 265.579C132.565 267.96 123.7 271.518 114.85 273.481C105.57 275.539 95.2046 276.169 84.189 272.558C80.5561 271.367 75.82 270.729 69.9741 270.14C64.5593 269.595 57.9432 269.079 52.2319 267.903C46.5561 266.734 39.9158 264.581 35.5686 259.625C30.9824 254.397 30.3556 247.741 32.3722 240.334C34.1887 233.663 37.903 227.668 45.5626 225.714C52.1535 224.033 58.7802 226.329 62.9674 227.961C65.3249 228.881 67.7917 229.976 69.9741 230.922C72.2549 231.911 74.3573 232.796 76.3984 233.519C80.6607 235.028 83.4431 235.367 85.3822 235C90.5507 234.023 95.7657 233.18 100.826 232.365C105.931 231.542 110.874 230.748 115.713 229.841C125.412 228.024 134.199 225.841 141.884 222.459C149.455 219.127 155.978 214.62 161.154 208.047C166.368 201.427 170.497 192.357 172.615 179.58C174.852 166.086 171.82 157.457 166.609 150.926C161.1 144.022 152.661 138.77 142.163 132.812C121.762 121.232 94.8846 107.891 88.6788 74.6412C88.1805 71.9717 87.7902 71.1549 87.1274 68.2109C86.5631 65.7046 86.1968 62.9439 86.6005 59.4528C87.555 51.1988 92.4543 44.042 99.424 40.2545C102.952 38.3372 107.295 37.1602 111.919 37.6111C116.42 38.0501 120.401 39.9607 123.443 42.9616C130.376 48.2446 135.974 54.5801 140.149 58.5433C144.793 62.9505 148.621 65.5615 153.692 66.6316C155.915 67.1008 157.616 67.1181 159.726 66.9776C161.649 66.8495 165.318 66.4225 169.14 66.4225C173.517 66.4224 179.337 64.845 186.584 62.1748C192.953 59.8279 201.507 56.1687 208.067 54.0116C211.58 52.8563 215.314 51.8368 218.962 51.3904C222.579 50.948 226.857 50.9755 230.906 52.608C239.861 56.2181 241.972 64.8034 241.64 73.7521C241.166 86.4872 233.881 93.2104 228.171 98.4592C222.756 103.438 219.051 106.884 218.452 114.165C217.425 126.637 221.884 133.632 228.518 139.861C232.122 143.246 236.257 146.295 241.1 150.028C245.793 153.647 250.928 157.751 255.617 162.774C273.504 181.933 297.704 211.461 318.357 229.342C323.436 233.74 328.02 237.172 331.973 239.465C336.137 241.88 338.594 242.434 339.624 242.439C339.813 242.44 339.894 242.421 339.901 242.42C339.901 242.419 339.904 242.418 339.91 242.414C339.928 242.404 340.325 242.188 340.89 241.305C342.142 239.35 343.432 235.384 343.813 228.234C344.386 217.508 340.045 209.731 335.162 200.333C330.329 191.033 325.089 180.255 328.377 165.838C333.722 142.405 346.71 126.435 368.166 122.417C375.066 121.125 380.846 123.37 384.909 127.104C388.557 130.458 390.969 135.071 392.729 139.616C396.286 148.8 398.399 161.125 400.32 172.228C402.333 183.857 404.122 194.018 406.807 200.418C407.42 201.88 407.967 202.849 408.38 203.474C415.574 198.898 418.965 189.429 419.067 174.427C419.169 159.413 416.071 142.194 414.035 124.992C411.95 107.371 400.438 95.7831 389.062 82.5158C383.57 76.1102 377.99 69.1016 374.923 61.0904C371.75 52.7995 371.372 43.7534 375.476 33.4208C381.458 18.3658 390.816 9.19173 402.968 4.60014ZM110.013 51.73C109.949 51.7238 109.411 51.6963 108.433 52.2277C106.39 53.3381 103.771 56.2749 103.243 60.8425C103.037 62.621 103.197 63.9659 103.551 65.5398C103.807 66.6762 104.729 69.915 105.195 72.4142C110.1 98.6926 130.168 108.914 151.45 120.994C161.795 126.866 172.883 133.468 180.449 142.95C188.313 152.806 191.902 165.097 189.173 181.563C186.79 195.936 181.975 207.162 175.051 215.952C168.091 224.789 159.28 230.806 149.573 235.078C139.978 239.301 129.54 241.803 119.313 243.719C114.189 244.679 108.994 245.514 103.941 246.328C98.8449 247.149 93.8844 247.951 89.0141 248.872C81.9235 250.213 75.1529 248.473 69.9676 246.637C67.2853 245.687 64.6899 244.584 62.3773 243.582C59.9662 242.537 57.9428 241.639 55.9933 240.878C52.5572 239.538 51.0303 239.354 50.5477 239.331C50.1769 239.713 49.4072 240.806 48.6632 243.538C47.2701 248.655 48.4068 250.483 48.9757 251.132C49.7835 252.053 51.6899 253.169 56.1697 254.092C60.6142 255.007 65.7635 255.405 71.9414 256.027C77.6883 256.606 84.3732 257.387 90.2062 259.299C96.9863 261.521 103.574 261.295 110.627 259.731C118.108 258.072 124.956 255.242 133.302 252.392C141.061 249.742 150.107 247.106 159.583 247.753C169.63 248.439 178.88 252.677 187.347 261.41C203.266 277.83 226.767 298.363 218.254 329.37C217.033 333.816 216.225 338.155 215.065 343.07C213.991 347.619 212.626 352.575 210.339 356.701C208.032 360.861 204.11 365.369 197.237 366.954C190.641 368.475 183.68 366.733 176.829 363.494C164.632 357.728 155.115 353.229 145.597 348.73L117.209 335.309C116.632 336.778 116.005 338.957 115.439 341.994C113.645 351.607 113.125 365.484 112.478 379.943C111.851 393.961 111.102 408.681 108.593 418.774C107.951 421.357 107.146 423.843 106.097 426.051C105.079 428.192 103.626 430.512 101.417 432.363C99.0223 434.371 95.6843 435.838 91.6269 435.735C87.888 435.641 84.6941 434.235 82.1924 432.646C78.8381 430.516 76.991 427.447 75.8813 424.911C74.7225 422.264 73.9893 419.304 73.4666 416.466C72.4665 411.035 71.9668 404.145 71.3764 399.535C71.2838 398.813 71.1874 398.134 71.0889 397.499C61.3558 407.442 53.6473 415.318 45.9382 423.194C37.9558 431.349 29.973 439.504 19.7435 449.954C17.9353 451.802 17.7477 452.803 17.7262 453.109C17.708 453.368 17.7406 453.962 18.6973 455.149C19.7237 456.424 21.4849 457.962 24.2082 459.869C26.9003 461.754 30.1141 463.718 33.8299 465.967C47.873 474.469 69.4186 486.869 73.9348 508.291C77.4823 525.12 71.6893 539.435 67.2992 551.47C62.7691 563.888 59.6554 573.979 63.9309 585.359C69.4037 599.924 77.7154 608.049 86.1694 611.686C94.4598 615.252 104.297 615.115 114.687 610.695C117.305 609.581 118.841 607.886 119.607 604.934C120.464 601.634 120.247 596.961 118.739 590.8C115.72 578.463 108.331 563.077 100.429 546.622C92.7278 530.587 84.5485 513.549 80.9872 499.041C77.582 485.169 77.4316 469.552 92.3193 461.172C104.565 454.278 116.483 459.799 122.363 462.018C126.025 463.401 128.091 464.001 129.715 464.046C130.619 464.071 131.858 463.981 133.882 462.184C136.668 459.709 138.332 456.063 138.966 450.679C139.608 445.228 139.104 438.921 138.429 431.734C137.779 424.81 136.969 417.066 137.41 409.749C137.854 402.393 139.585 394.703 144.653 388.034C148.763 382.626 154.511 379.25 161.387 378.039C167.953 376.882 174.827 377.821 181.359 379.722C194.324 383.495 208.613 391.861 222.186 401.548C249.549 421.075 276.913 448.103 289.769 462.869C295.673 469.651 299.252 476.082 300.3 482.346C301.379 488.802 299.668 494.488 296.235 499.427C292.926 504.185 288.113 508.123 283.133 511.519C278.157 514.914 272.44 518.14 267.112 521.208C255.95 527.637 246.275 533.572 240.822 541.192C235.882 548.096 233.884 557.216 240.979 571.416C247.927 585.324 254.587 589.958 259.859 591.437C265.464 593.01 272.259 591.891 282.079 588.667C290.989 585.742 302.904 580.82 314.725 578.295C327.191 575.633 341.105 575.16 355.767 581.107C362.244 583.734 367.262 587.114 370.752 591.345C374.258 595.595 375.854 600.257 376.297 604.933C377.138 613.795 373.815 623.606 371.015 632.159C364.928 650.757 360.419 666.29 375.903 679.567C389.411 691.15 412.03 711.621 430.402 725.321C434.956 728.718 439.114 731.594 442.693 733.759C443.513 734.256 444.276 734.696 444.981 735.088C438.273 709.209 434.397 690.678 432.86 678.175C432.08 671.835 431.854 666.693 432.301 662.799C432.523 660.866 432.948 658.878 433.8 657.083C434.63 655.337 436.252 652.984 439.431 651.614C442.841 650.146 446.221 650.573 448.574 651.354C450.787 652.088 452.636 653.285 454.063 654.378C456.954 656.594 459.91 659.806 462.81 663.405C468.706 670.718 475.639 681.238 482.929 693.181C497.553 717.139 514.245 747.889 527.846 772.667C534.676 785.108 540.708 796.011 545.359 803.904C547.693 807.866 549.607 810.945 551.055 813.04C551.457 813.622 551.794 814.082 552.066 814.438C557.543 816.005 561.871 816.149 565.25 815.165C568.74 814.148 572.881 811.436 576.565 804.291C579.023 799.521 578.98 795.906 577.83 792.68C576.569 789.146 573.783 785.529 569.526 781.173C567.422 779.02 565.129 776.851 562.625 774.463C560.164 772.116 557.537 769.594 554.987 766.916C549.881 761.555 544.841 755.332 541.484 747.847C529.511 721.155 518.022 704.482 515.431 671.037C515.107 666.855 516.474 663.256 517.808 660.53C518.471 659.176 519.213 657.873 519.801 656.826C520.43 655.706 520.902 654.848 521.265 654.057C521.621 653.281 521.773 652.776 521.829 652.445C521.878 652.155 521.843 652.059 521.84 652.049C521.838 652.045 521.794 651.865 521.444 651.487C521.064 651.077 520.329 650.44 518.956 649.617C502.915 640.006 466.926 610.421 445.837 566.196C435.444 544.402 432.637 529.485 434.478 519.443C435.419 514.306 437.652 510.076 441.164 507.04C444.446 504.204 448.475 502.749 452.429 502.483C452.619 502.396 452.905 502.258 453.296 502.043C454.604 501.324 456.36 500.173 458.626 498.551C463.256 495.236 468.644 490.967 475.337 485.963C488.021 476.479 504.642 464.9 521.194 460.337C530.626 457.737 539.815 459.571 547.388 462.083C554.544 464.457 562.618 468.368 567.933 470.525C574.384 473.142 577.788 473.705 579.691 473.329C580.461 473.177 583.253 472.439 585.977 464.987C588.928 456.918 587.957 451.674 585.664 447.994C583.241 444.106 578.607 440.776 571.664 437.867C564.742 434.967 556.326 432.815 547.379 430.899C538.885 429.08 529.119 427.332 521.483 425.483C511.783 423.135 503.908 427.051 491.787 432.313C486.272 434.707 479.661 437.384 472.403 438.136C464.677 438.938 456.762 437.528 448.784 432.771C441.144 428.216 434.735 423.56 429.107 417.422C423.504 411.31 418.952 404.03 414.564 394.472C408.273 380.764 398.713 366.167 404.524 347.19C407.163 338.568 411.594 332.82 417.64 328.744C423.207 324.991 429.866 322.959 434.964 321.181C442.896 318.415 450.038 319.756 455.859 322.635C461.16 325.256 465.763 329.352 469.4 332.583C473.434 336.165 476.547 338.935 479.727 340.714C482.571 342.304 484.576 342.598 486.674 342.118C491.788 340.948 495.814 337.498 499.152 330.373C502.538 323.144 504.521 313.567 506.412 302.441C508.249 291.639 509.987 279.468 513.065 268.293C516.141 257.124 520.777 246.013 529.064 237.429C540.344 225.746 551.719 222.066 561.694 218.899C571.184 215.886 579.118 213.405 587.624 205.004C605.228 187.619 628.725 159.581 642.661 133.489C649.66 120.383 653.913 108.376 654.256 98.7469C654.59 89.3728 651.294 83.2438 644.306 79.5717C641.771 78.2402 639.854 77.8443 638.406 77.8045C636.958 77.7649 635.394 78.0653 633.54 78.8907C629.458 80.7072 625.084 84.5107 619.673 90.0998C614.684 95.2535 608.739 102.019 602.472 107.522C596.107 113.11 588.29 118.47 578.544 120.559C565.931 123.263 555.332 120.308 547.834 118.759C540.224 117.187 534.751 116.613 527.836 119.88C525.244 121.105 522.106 123.946 518.756 129.09C515.49 134.102 512.478 140.59 509.702 148.103C504.151 163.129 499.909 181.231 496.293 197.643C492.782 213.573 489.727 228.683 486.572 236.413C485.798 238.309 484.711 240.585 483.064 242.359C482.227 243.26 480.707 244.628 478.326 245.385C475.532 246.274 472.625 245.984 470.25 244.878C468.227 243.936 466.942 242.579 466.185 241.63C465.373 240.609 464.728 239.489 464.197 238.409C463.137 236.249 462.17 233.487 461.243 230.225C457.667 217.655 459.27 206.818 460.744 197.127C462.238 187.302 463.59 178.669 461.177 168.609C458.438 157.189 453.708 150.526 448.173 143.615C442.502 136.535 435.511 128.714 430.252 116.03C429.418 114.019 428.4 111.913 427.254 109.721C428.883 114.008 430.085 118.607 430.673 123.57C432.578 139.672 435.898 158.491 435.789 174.509C435.683 190.178 432.395 206.643 417.374 215.481C414.979 216.89 412.133 218.031 408.907 218.275C405.5 218.533 402.377 217.736 399.786 216.244C395.188 213.598 392.657 209.007 391.055 205.19C387.682 197.15 385.681 185.303 383.777 174.296C381.781 162.763 379.85 151.823 376.844 144.059C375.322 140.129 373.823 137.847 372.631 136.751C371.852 136.036 371.862 136.277 371.764 136.295C359.732 138.549 349.555 147.666 344.793 168.543C342.557 178.345 345.782 185.593 350.459 194.592C355.084 203.494 361.296 214.291 360.518 228.877C360.097 236.758 358.647 243.306 355.579 248.098C353.986 250.586 351.828 252.801 348.941 254.376C345.999 255.98 342.755 256.667 339.516 256.65C333.434 256.616 327.562 254.113 322.546 251.203C317.318 248.17 311.868 244.01 306.424 239.296C284.98 220.73 259.235 189.514 242.517 171.607C238.723 167.543 234.442 164.084 229.863 160.554C225.433 157.137 220.435 153.449 216.12 149.397C206.913 140.752 200.378 130.072 201.77 113.173C202.807 100.573 210.317 93.9388 215.892 88.8128C221.174 83.9568 224.657 80.55 224.926 73.3033C225.139 67.5661 224.012 65.8224 223.634 65.4232C223.392 65.3744 222.716 65.2888 221.345 65.4565C219.507 65.6814 217.12 66.2726 214.101 67.2653C207.597 69.4045 201.441 72.1904 193.236 75.2139C185.908 77.914 177.287 80.6338 169.14 80.6339C166.142 80.6339 164.45 80.9179 161.031 81.1455C157.8 81.3606 154.178 81.3771 149.661 80.4238C139.679 78.3172 133.069 73.1251 127.693 68.0231C121.948 62.5714 118.113 57.9003 111.9 53.2557L111.345 52.8412L110.885 52.3499C110.536 51.9787 110.283 51.8336 110.183 51.7846C110.091 51.7393 110.046 51.7332 110.013 51.73ZM437.035 15.9767C426.096 14.74 417.066 14.8266 409.761 17.5865C402.914 20.1737 396.21 25.6583 391.32 37.9664C388.378 45.3728 388.754 51.2832 390.826 56.6947C393.004 62.386 397.159 67.8269 402.577 74.1462C406.893 79.1802 411.987 84.6908 416.668 90.9945C415.643 89.1293 414.661 87.2756 413.774 85.4644C411.276 80.3606 409.08 74.7742 408.902 69.5321C408.71 63.8624 410.936 58.009 417.773 54.2031C420.361 52.7624 423.054 52.012 425.801 51.853C428.382 51.7037 430.612 52.1075 432.1 52.4202C435.632 53.1628 435.814 53.2871 436.609 53.1613C438.952 52.7909 441.389 52.4686 443.695 52.1583C446.049 51.8418 448.31 51.5324 450.521 51.1693C454.995 50.4348 458.788 49.5497 461.867 48.2613C464.835 47.0186 466.938 45.4865 468.352 43.4566C469.783 41.4012 470.928 38.2327 470.751 33.134C470.578 28.1198 469.278 25.1553 467.842 23.3275C466.442 21.5449 464.461 20.2673 461.65 19.2908C458.705 18.268 455.084 17.6581 450.723 17.2054C448.565 16.9813 446.374 16.8085 444.052 16.6215C441.781 16.4386 439.379 16.2417 437.035 15.9767Z" fill="white" stroke="black" stroke-width="2"/>
</svg>
