<svg width="672" height="831" viewBox="0 0 672 831" fill="none" xmlns="http://www.w3.org/2000/svg">
<path d="M269.032 4.60014C257.338 0.181589 244.434 0.569379 232.759 1.88925C230.771 2.1141 228.667 2.2881 226.37 2.47306C224.123 2.654 221.681 2.84615 219.25 3.09851C214.434 3.59846 209.051 4.38939 204.023 6.13601C198.861 7.92898 193.901 10.7898 190.25 15.4373C186.635 20.0395 184.773 25.7966 184.533 32.7167C184.287 39.8131 185.847 45.7964 189.259 50.6956C192.689 55.6203 197.572 58.8458 202.745 61.0109C207.808 63.1301 213.311 64.3032 218.307 65.1235C220.83 65.5377 223.347 65.8797 225.691 66.1949C228.081 66.5164 230.262 66.8057 232.333 67.133C237.661 67.9753 242.516 66.5097 243.916 66.2152C244.507 66.091 244.818 66.0517 244.963 66.0385C244.989 66.0518 245.024 66.0682 245.065 66.0912C245.834 66.5196 246.454 67.0247 246.383 69.1223C246.297 71.6476 245.12 75.2382 242.786 80.0066C240.499 84.6794 237.516 89.691 234.391 95.0969C231.353 100.353 228.191 105.964 225.976 111.308C221.584 121.901 216.011 128.12 210.004 135.62C203.861 143.29 197.802 151.748 194.438 165.771C191.392 178.471 193.214 189.362 194.672 198.949C195.437 203.979 196.107 208.673 196.192 213.382C194.962 207.961 193.629 201.765 192.144 195.027C188.538 178.662 184.139 159.783 178.251 143.846C175.308 135.878 171.901 128.389 167.874 122.207C163.933 116.156 158.907 110.586 152.289 107.459C139.732 101.526 129.015 103.132 120.216 104.95C111.305 106.791 105.277 108.436 97.5453 106.779C92.2647 105.647 87.094 102.513 81.5428 97.6385C75.8932 92.678 70.9928 87.0119 65.2398 81.0696C59.9085 75.5629 53.6422 69.6052 46.2184 66.3013C42.3206 64.5666 37.9139 63.4674 33.0552 63.6005C28.1962 63.7337 23.4695 65.0835 18.9012 67.4837C5.24729 74.6576 0.57868 86.5352 1.02943 99.1771C1.4711 111.564 6.75256 125.583 14.1121 139.363C28.8951 167.042 53.412 196.213 71.7001 214.274C83.1661 225.597 94.6297 229.093 104.453 232.212C113.791 235.176 121.647 237.783 130.009 246.444C135.883 252.528 139.789 261.13 142.654 271.531C145.517 281.926 147.118 293.182 149.038 304.473C150.902 315.44 153.092 326.622 157.313 335.63C161.582 344.743 168.599 353.008 180.979 355.841C189.091 357.697 196.021 355.631 201.465 352.586C206.572 349.73 211.098 345.59 214.681 342.408C218.66 338.874 221.653 336.351 224.55 334.919C226.927 333.744 228.587 333.597 230.688 334.329C236.882 336.49 240.726 337.693 243.967 339.878C246.73 341.74 249.415 344.636 251.293 350.769C255.391 364.151 249.195 373.319 241.857 389.306C237.842 398.052 234.001 403.997 229.701 408.688C225.426 413.351 220.421 417.078 213.612 421.138C208.971 423.906 205.19 424.4 201.623 424.03C197.588 423.611 193.31 422.041 187.82 419.658C177.93 415.365 163.329 407.604 145.935 411.816L144.525 412.151C137.426 413.805 129.581 415.182 120.535 417.119C111.338 419.088 101.512 421.531 92.9424 425.12C84.3936 428.702 76.2843 433.759 71.5585 441.341C66.7032 449.132 66.1193 458.444 70.054 469.204C73.4815 478.578 79.1794 485.327 88.5245 487.172C96.7356 488.793 105.072 485.864 111.27 483.349C118.604 480.373 124.092 477.511 130.692 475.322C136.876 473.271 141.641 472.75 145.647 473.855C158.457 477.386 172.675 486.955 185.617 496.633C191.738 501.209 197.86 506.026 202.6 509.419C205.019 511.151 207.413 512.761 209.616 513.973C211.405 514.957 214.599 516.582 218.236 516.648C218.26 516.648 218.319 516.653 218.409 516.686C218.489 516.715 218.668 516.793 218.914 517.005C219.389 517.416 220.452 518.644 221 521.63C222.137 527.837 220.69 539.835 210.665 560.858C190.918 602.267 157.144 629.772 143.408 638.002C138.725 640.808 135.253 644.217 133.956 648.536C132.683 652.777 133.932 656.552 135.155 659.219C135.773 660.566 136.502 661.87 137.109 662.95C137.758 664.105 138.289 665.044 138.752 665.989C139.668 667.861 139.962 669.089 139.883 670.103C137.506 700.781 127.542 714.579 114.89 742.785C112.412 748.309 108.561 753.202 104.015 757.975C101.74 760.364 99.3491 762.664 96.891 765.008C94.4756 767.311 91.946 769.703 89.6099 772.093C84.9871 776.823 80.4267 782.226 78.1679 788.556C75.7991 795.196 76.149 802.293 80.1188 809.994C85.0584 819.576 92.1309 825.929 101.327 828.608C110.277 831.216 119.538 829.832 127.722 827.154C129.544 826.558 130.743 825.581 131.22 825.177C131.842 824.649 132.371 824.091 132.79 823.614C133.636 822.652 134.507 821.478 135.365 820.237C137.103 817.722 139.216 814.302 141.593 810.267C146.366 802.167 152.496 791.083 159.307 778.675C172.987 753.754 189.494 723.349 203.914 699.725C211.145 687.878 217.695 677.999 222.985 671.436C223.003 671.414 223.022 671.393 223.04 671.371C222.927 672.94 222.754 674.71 222.51 676.698C221.041 688.647 217.198 707.08 210.251 733.719C209.639 736.065 209.268 738.323 209.298 740.406C209.328 742.416 209.738 744.879 211.363 747.116C213.202 749.647 216.08 751.174 219.263 751.647C222.074 752.064 224.705 751.61 226.698 751.073C230.671 750.001 234.941 747.795 239.005 745.336C243.222 742.784 247.85 739.565 252.627 736.003C271.582 721.867 295.031 700.668 307.973 689.571C331.192 669.661 322.723 645.544 317.095 628.351C314.037 619.008 311.819 611.888 312.37 606.075C312.623 603.414 313.456 601.302 314.94 599.503C316.44 597.685 318.974 595.742 323.436 593.933C333.601 589.809 343.298 589.964 353.199 592.078C363.746 594.33 372.955 598.332 383.896 601.924C393.926 605.217 405.711 608.208 417.385 604.932C429.392 601.562 438.711 592.386 446.413 576.971C455.276 559.233 453.623 545.209 445.465 533.808C437.819 523.124 424.945 515.593 414.269 509.444C408.677 506.224 403.652 503.382 399.333 500.436C395.018 497.493 391.984 494.818 390.162 492.197C388.465 489.756 387.762 487.297 388.256 484.346C388.781 481.202 390.762 476.964 395.674 471.322C407.955 457.216 434.446 431.073 460.568 412.431C473.738 403.032 486.1 396.064 496.058 393.166C500.987 391.732 504.642 391.5 507.219 391.954C509.486 392.353 511.493 393.367 513.299 395.744C516.126 399.464 517.518 404.332 517.889 410.477C518.263 416.661 517.581 423.361 516.901 430.603C516.245 437.582 515.579 445.162 516.396 452.094C517.22 459.094 519.642 466.329 526.036 472.009C531.061 476.472 536.778 478.418 542.829 478.25C548.159 478.103 553.045 476.282 556.425 475.006C564.631 471.909 567.158 471.169 570.446 473.02C575.658 475.954 577.983 482.532 574.643 496.139C571.459 509.11 563.972 524.835 556.088 541.252C548.405 557.25 540.29 574.007 536.889 587.906C535.187 594.861 534.464 601.831 536.064 607.995C537.754 614.508 542.071 620.103 549.828 623.403C564.081 629.466 579.559 630.312 593.382 624.366C607.04 618.49 617.639 606.609 623.999 589.681C630.038 573.606 625.155 559.547 620.673 547.261C616.051 534.59 611.816 523.645 614.525 510.797C617.632 496.057 632.512 486.841 647.872 477.542C651.507 475.341 655.205 473.092 658.426 470.837C661.616 468.603 664.77 466.07 667.101 463.178C669.5 460.199 671.268 456.528 670.967 452.259C670.669 448.036 668.418 444.244 665.112 440.866C654.882 430.415 646.9 422.26 638.918 414.106C630.936 405.951 622.953 397.795 612.723 387.345C609.98 384.543 606.929 381.984 603.484 380.634C601.617 379.902 599.247 379.373 596.601 379.679C593.864 379.996 591.679 381.108 590.094 382.438C587.329 384.759 586.145 387.941 585.512 390.092C584.794 392.529 584.345 395.309 584.001 397.998C583.254 403.828 582.955 409.154 582.013 414.269C581.646 416.26 581.227 417.889 580.762 419.16C580.423 418.228 580.089 417.124 579.769 415.837C577.619 407.189 576.878 393.84 576.232 379.402C575.606 365.406 575.07 350.441 573.078 339.768C572.12 334.636 570.642 329.305 567.785 325.564C566.272 323.583 563.817 321.318 560.029 320.356C556.314 319.412 552.828 320.096 550.051 321.299L549.506 321.546L487.042 351.075C481.696 353.602 479.53 353.328 479.142 353.238C479.03 353.212 478.11 353.028 476.788 350.644C475.446 348.222 474.392 344.772 473.331 340.275C472.356 336.144 471.311 330.799 470.032 326.14C463.755 303.278 479.966 288.595 497.559 270.448C503.723 264.09 509.052 262.24 513.756 261.919C519.029 261.559 524.906 262.998 532.464 265.579C539.435 267.96 548.3 271.518 557.15 273.481C566.43 275.539 576.795 276.169 587.811 272.558C591.444 271.367 596.18 270.729 602.026 270.14C607.441 269.595 614.057 269.079 619.768 267.903C625.444 266.734 632.084 264.581 636.431 259.625C641.018 254.397 641.644 247.741 639.628 240.334C637.811 233.663 634.097 227.668 626.437 225.714C619.847 224.033 613.22 226.329 609.033 227.961C606.675 228.881 604.208 229.976 602.026 230.922C599.745 231.911 597.643 232.796 595.602 233.519C591.339 235.028 588.557 235.367 586.618 235C581.449 234.023 576.234 233.18 571.174 232.365C566.069 231.542 561.126 230.748 556.287 229.841C546.588 228.024 537.801 225.841 530.116 222.459C522.545 219.127 516.022 214.62 510.846 208.047C505.632 201.427 501.503 192.357 499.385 179.58C497.148 166.086 500.18 157.457 505.391 150.926C510.9 144.022 519.339 138.77 529.837 132.812C550.238 121.232 577.115 107.891 583.321 74.6412C583.819 71.9717 584.21 71.1549 584.873 68.2109C585.437 65.7046 585.803 62.9439 585.4 59.4528C584.445 51.1988 579.546 44.042 572.576 40.2545C569.048 38.3372 564.705 37.1602 560.081 37.6111C555.58 38.0501 551.599 39.9607 548.557 42.9616C541.624 48.2446 536.026 54.5801 531.851 58.5433C527.207 62.9505 523.379 65.5615 518.308 66.6316C516.085 67.1008 514.384 67.1181 512.274 66.9776C510.351 66.8495 506.682 66.4225 502.86 66.4225C498.483 66.4224 492.663 64.845 485.416 62.1748C479.047 59.8279 470.493 56.1687 463.933 54.0116C460.42 52.8563 456.686 51.8368 453.038 51.3904C449.421 50.948 445.143 50.9755 441.094 52.608C432.139 56.2181 430.028 64.8034 430.36 73.7521C430.834 86.4872 438.119 93.2104 443.829 98.4592C449.244 103.438 452.949 106.884 453.548 114.165C454.575 126.637 450.116 133.632 443.482 139.861C439.878 143.246 435.743 146.295 430.9 150.028C426.207 153.647 421.072 157.751 416.383 162.774C398.496 181.933 374.296 211.461 353.643 229.342C348.564 233.74 343.98 237.172 340.027 239.465C335.863 241.88 333.406 242.434 332.376 242.439C332.187 242.44 332.106 242.421 332.099 242.42C332.099 242.419 332.096 242.418 332.09 242.414C332.072 242.404 331.675 242.188 331.11 241.305C329.858 239.35 328.568 235.384 328.187 228.234C327.614 217.508 331.955 209.731 336.838 200.333C341.671 191.033 346.911 180.255 343.623 165.838C338.278 142.405 325.29 126.435 303.834 122.417C296.934 121.125 291.154 123.37 287.091 127.104C283.443 130.458 281.031 135.071 279.271 139.616C275.714 148.8 273.601 161.125 271.68 172.228C269.667 183.857 267.878 194.018 265.193 200.418C264.58 201.88 264.033 202.849 263.62 203.474C256.426 198.898 253.035 189.429 252.933 174.427C252.831 159.413 255.929 142.194 257.965 124.992C260.05 107.371 271.562 95.7831 282.938 82.5158C288.43 76.1102 294.01 69.1016 297.077 61.0904C300.25 52.7995 300.628 43.7534 296.524 33.4208C290.542 18.3658 281.184 9.19173 269.032 4.60014ZM561.987 51.73C562.051 51.7238 562.589 51.6963 563.567 52.2277C565.61 53.3381 568.229 56.2749 568.757 60.8425C568.963 62.621 568.803 63.9659 568.449 65.5398C568.193 66.6762 567.271 69.915 566.805 72.4142C561.9 98.6926 541.832 108.914 520.55 120.994C510.205 126.866 499.117 133.468 491.551 142.95C483.687 152.806 480.098 165.097 482.827 181.563C485.21 195.936 490.025 207.162 496.949 215.952C503.909 224.789 512.72 230.806 522.427 235.078C532.022 239.301 542.46 241.803 552.687 243.719C557.811 244.679 563.006 245.514 568.059 246.328C573.155 247.149 578.116 247.951 582.986 248.872C590.077 250.213 596.847 248.473 602.032 246.637C604.715 245.687 607.31 244.584 609.623 243.582C612.034 242.537 614.057 241.639 616.007 240.878C619.443 239.538 620.97 239.354 621.452 239.331C621.823 239.713 622.593 240.806 623.337 243.538C624.73 248.655 623.593 250.483 623.024 251.132C622.217 252.053 620.31 253.169 615.83 254.092C611.386 255.007 606.237 255.405 600.059 256.027C594.312 256.606 587.627 257.387 581.794 259.299C575.014 261.521 568.426 261.295 561.373 259.731C553.892 258.072 547.044 255.242 538.698 252.392C530.939 249.742 521.893 247.106 512.417 247.753C502.37 248.439 493.12 252.677 484.653 261.41C468.734 277.83 445.233 298.363 453.746 329.37C454.967 333.816 455.775 338.155 456.935 343.07C458.009 347.619 459.374 352.575 461.661 356.701C463.968 360.861 467.89 365.369 474.763 366.954C481.359 368.475 488.32 366.733 495.171 363.494C507.368 357.728 516.885 353.229 526.403 348.73L554.791 335.309C555.368 336.778 555.995 338.957 556.561 341.994C558.355 351.607 558.875 365.484 559.522 379.943C560.149 393.961 560.898 408.681 563.407 418.774C564.049 421.357 564.854 423.843 565.903 426.051C566.921 428.192 568.374 430.512 570.583 432.363C572.978 434.371 576.316 435.838 580.373 435.735C584.112 435.641 587.306 434.235 589.808 432.646C593.162 430.516 595.009 427.447 596.119 424.911C597.277 422.264 598.011 419.304 598.533 416.466C599.534 411.035 600.033 404.145 600.624 399.535C600.716 398.813 600.813 398.134 600.911 397.499C610.644 407.442 618.353 415.318 626.062 423.194C634.044 431.349 642.027 439.504 652.257 449.954C654.065 451.802 654.252 452.803 654.274 453.109C654.292 453.368 654.259 453.962 653.303 455.149C652.276 456.424 650.515 457.962 647.792 459.869C645.1 461.754 641.886 463.718 638.17 465.967C624.127 474.469 602.581 486.869 598.065 508.291C594.518 525.12 600.311 539.435 604.701 551.47C609.231 563.888 612.345 573.979 608.069 585.359C602.596 599.924 594.285 608.049 585.831 611.686C577.54 615.252 567.703 615.115 557.313 610.695C554.695 609.581 553.159 607.886 552.393 604.934C551.536 601.634 551.753 596.961 553.261 590.8C556.28 578.463 563.669 563.077 571.571 546.622C579.272 530.587 587.452 513.549 591.013 499.041C594.418 485.169 594.568 469.552 579.681 461.172C567.435 454.278 555.517 459.799 549.637 462.018C545.975 463.401 543.909 464.001 542.285 464.046C541.381 464.071 540.142 463.981 538.118 462.184C535.332 459.709 533.668 456.063 533.034 450.679C532.392 445.228 532.896 438.921 533.571 431.734C534.221 424.81 535.031 417.066 534.59 409.749C534.146 402.393 532.415 394.703 527.347 388.034C523.237 382.626 517.489 379.25 510.613 378.039C504.047 376.882 497.173 377.821 490.641 379.722C477.676 383.495 463.387 391.861 449.814 401.548C422.451 421.075 395.087 448.103 382.231 462.869C376.327 469.651 372.748 476.082 371.7 482.346C370.621 488.802 372.332 494.488 375.765 499.427C379.074 504.185 383.887 508.123 388.867 511.519C393.843 514.914 399.56 518.14 404.888 521.208C416.05 527.637 425.725 533.572 431.178 541.192C436.118 548.096 438.116 557.216 431.021 571.416C424.073 585.324 417.413 589.958 412.141 591.437C406.536 593.01 399.741 591.891 389.921 588.667C381.011 585.742 369.096 580.82 357.275 578.295C344.809 575.633 330.895 575.16 316.233 581.107C309.756 583.734 304.738 587.114 301.248 591.345C297.742 595.595 296.146 600.257 295.703 604.933C294.862 613.795 298.185 623.606 300.985 632.159C307.072 650.757 311.581 666.29 296.097 679.567C282.589 691.15 259.97 711.621 241.598 725.321C237.044 728.718 232.886 731.594 229.307 733.759C228.487 734.256 227.724 734.696 227.019 735.088C233.727 709.209 237.603 690.678 239.14 678.175C239.92 671.835 240.146 666.693 239.699 662.799C239.477 660.866 239.052 658.878 238.2 657.083C237.37 655.337 235.748 652.984 232.569 651.614C229.159 650.146 225.779 650.573 223.426 651.354C221.213 652.088 219.364 653.285 217.937 654.378C215.046 656.594 212.09 659.806 209.19 663.405C203.294 670.718 196.361 681.238 189.071 693.181C174.447 717.139 157.755 747.889 144.154 772.667C137.324 785.108 131.292 796.011 126.641 803.904C124.307 807.866 122.393 810.945 120.945 813.04C120.543 813.622 120.206 814.082 119.934 814.438C114.457 816.005 110.129 816.149 106.75 815.165C103.26 814.148 99.1186 811.436 95.4355 804.291C92.9769 799.521 93.0195 795.906 94.1704 792.68C95.4314 789.146 98.2172 785.529 102.474 781.173C104.578 779.02 106.871 776.851 109.375 774.463C111.836 772.116 114.463 769.594 117.013 766.916C122.119 761.555 127.159 755.332 130.516 747.847C142.489 721.155 153.978 704.482 156.569 671.037C156.893 666.855 155.526 663.256 154.192 660.53C153.529 659.176 152.787 657.873 152.199 656.826C151.57 655.706 151.098 654.848 150.735 654.057C150.379 653.281 150.227 652.776 150.171 652.445C150.122 652.155 150.157 652.059 150.16 652.049C150.162 652.045 150.206 651.865 150.556 651.487C150.936 651.077 151.671 650.44 153.044 649.617C169.085 640.006 205.074 610.421 226.163 566.196C236.556 544.402 239.363 529.485 237.522 519.443C236.581 514.306 234.348 510.076 230.836 507.04C227.554 504.204 223.525 502.749 219.571 502.483C219.381 502.396 219.095 502.258 218.704 502.043C217.396 501.324 215.64 500.173 213.374 498.551C208.744 495.236 203.356 490.967 196.663 485.963C183.979 476.479 167.358 464.9 150.806 460.337C141.374 457.737 132.185 459.571 124.612 462.083C117.456 464.457 109.382 468.368 104.067 470.525C97.6157 473.142 94.2123 473.705 92.3088 473.329C91.539 473.177 88.7475 472.439 86.0227 464.987C83.0722 456.918 84.0426 451.674 86.3363 447.994C88.7594 444.106 93.3928 440.776 100.336 437.867C107.258 434.967 115.674 432.815 124.621 430.899C133.115 429.08 142.881 427.332 150.517 425.483C160.217 423.135 168.092 427.051 180.213 432.313C185.728 434.707 192.339 437.384 199.597 438.136C207.323 438.938 215.238 437.528 223.216 432.771C230.856 428.216 237.265 423.56 242.893 417.422C248.496 411.31 253.048 404.03 257.436 394.472C263.727 380.764 273.287 366.167 267.476 347.19C264.837 338.568 260.406 332.82 254.36 328.744C248.793 324.991 242.134 322.959 237.036 321.181C229.104 318.415 221.962 319.756 216.141 322.635C210.84 325.256 206.237 329.352 202.6 332.583C198.566 336.165 195.453 338.935 192.273 340.714C189.429 342.304 187.424 342.598 185.326 342.118C180.212 340.948 176.186 337.498 172.848 330.373C169.462 323.144 167.479 313.567 165.588 302.441C163.751 291.639 162.013 279.468 158.935 268.293C155.859 257.124 151.223 246.013 142.936 237.429C131.656 225.746 120.281 222.066 110.306 218.899C100.816 215.886 92.8824 213.405 84.3756 205.004C66.7716 187.619 43.2749 159.581 29.3395 133.489C22.3399 120.383 18.0873 108.376 17.7439 98.7469C17.4097 89.3728 20.7055 83.2438 27.6945 79.5717C30.2287 78.2402 32.1464 77.8443 33.5941 77.8045C35.0419 77.7649 36.6056 78.0653 38.4605 78.8907C42.5421 80.7072 46.916 84.5107 52.327 90.0998C57.3165 95.2535 63.2614 102.019 69.5281 107.522C75.8931 113.11 83.7099 118.47 93.4563 120.559C106.069 123.263 116.668 120.308 124.166 118.759C131.776 117.187 137.249 116.613 144.164 119.88C146.756 121.105 149.894 123.946 153.244 129.09C156.51 134.102 159.522 140.59 162.298 148.103C167.849 163.129 172.091 181.231 175.707 197.643C179.218 213.573 182.273 228.683 185.428 236.413C186.202 238.309 187.289 240.585 188.936 242.359C189.773 243.26 191.293 244.628 193.674 245.385C196.468 246.274 199.375 245.984 201.75 244.878C203.773 243.936 205.058 242.579 205.815 241.63C206.627 240.609 207.272 239.489 207.803 238.409C208.863 236.249 209.83 233.487 210.757 230.225C214.333 217.655 212.73 206.818 211.256 197.127C209.762 187.302 208.41 178.669 210.823 168.609C213.562 157.189 218.292 150.526 223.827 143.615C229.498 136.535 236.489 128.714 241.748 116.03C242.582 114.019 243.6 111.913 244.746 109.721C243.117 114.008 241.915 118.607 241.327 123.57C239.422 139.672 236.102 158.491 236.211 174.509C236.317 190.178 239.605 206.643 254.626 215.481C257.021 216.89 259.867 218.031 263.093 218.275C266.5 218.533 269.623 217.736 272.214 216.244C276.812 213.598 279.343 209.007 280.945 205.19C284.318 197.15 286.319 185.303 288.223 174.296C290.219 162.763 292.15 151.823 295.156 144.059C296.678 140.129 298.177 137.847 299.369 136.751C300.148 136.036 300.138 136.277 300.236 136.295C312.268 138.549 322.445 147.666 327.207 168.543C329.443 178.345 326.218 185.593 321.541 194.592C316.916 203.494 310.704 214.291 311.482 228.877C311.903 236.758 313.353 243.306 316.421 248.098C318.014 250.586 320.172 252.801 323.059 254.376C326.001 255.98 329.245 256.667 332.484 256.65C338.566 256.616 344.438 254.113 349.454 251.203C354.682 248.17 360.132 244.01 365.576 239.296C387.02 220.73 412.765 189.514 429.483 171.607C433.277 167.543 437.558 164.084 442.137 160.554C446.567 157.137 451.565 153.449 455.88 149.397C465.087 140.752 471.622 130.072 470.23 113.173C469.193 100.573 461.683 93.9388 456.108 88.8128C450.826 83.9568 447.343 80.55 447.074 73.3033C446.861 67.5661 447.988 65.8224 448.366 65.4232C448.608 65.3744 449.284 65.2888 450.655 65.4565C452.493 65.6814 454.88 66.2726 457.899 67.2653C464.403 69.4045 470.559 72.1904 478.764 75.2139C486.092 77.914 494.713 80.6338 502.86 80.6339C505.858 80.6339 507.55 80.9179 510.969 81.1455C514.2 81.3606 517.822 81.3771 522.339 80.4238C532.321 78.3172 538.931 73.1251 544.307 68.0231C550.052 62.5714 553.887 57.9003 560.1 53.2557L560.655 52.8412L561.115 52.3499C561.464 51.9787 561.717 51.8336 561.817 51.7846C561.909 51.7393 561.954 51.7332 561.987 51.73ZM234.965 15.9767C245.904 14.74 254.934 14.8266 262.239 17.5865C269.086 20.1737 275.79 25.6583 280.68 37.9664C283.622 45.3728 283.246 51.2832 281.174 56.6947C278.996 62.386 274.841 67.8269 269.423 74.1462C265.107 79.1802 260.013 84.6908 255.332 90.9945C256.357 89.1293 257.339 87.2756 258.226 85.4644C260.724 80.3606 262.92 74.7742 263.098 69.5321C263.29 63.8624 261.064 58.009 254.227 54.2031C251.639 52.7624 248.946 52.012 246.199 51.853C243.618 51.7037 241.388 52.1075 239.9 52.4202C236.368 53.1628 236.186 53.2871 235.391 53.1613C233.048 52.7909 230.611 52.4686 228.305 52.1583C225.951 51.8418 223.69 51.5324 221.479 51.1693C217.005 50.4348 213.212 49.5497 210.133 48.2613C207.165 47.0186 205.062 45.4865 203.648 43.4566C202.217 41.4012 201.072 38.2327 201.249 33.134C201.422 28.1198 202.722 25.1553 204.158 23.3275C205.558 21.5449 207.539 20.2673 210.35 19.2908C213.295 18.268 216.916 17.6581 221.277 17.2054C223.435 16.9813 225.626 16.8085 227.948 16.6215C230.219 16.4386 232.621 16.2417 234.965 15.9767Z" fill="white" stroke="black" stroke-width="2"/>
</svg>
